<svg xmlns="http://www.w3.org/2000/svg" fill="none" viewBox="0 0 24 24"><ellipse cx="12" cy="12.75" fill="#14A894" rx="6.75" ry="6"/><ellipse cx="12" cy="5.25" fill="#14A894" rx="2.25" ry="2.625"/><ellipse cx="6" cy="9.75" fill="#14A894" rx="1.875" ry="1.5" transform="rotate(-30 6 9.75)"/><ellipse cx="18" cy="9.75" fill="#14A894" rx="1.875" ry="1.5" transform="rotate(30 18 9.75)"/><ellipse cx="6" cy="16.5" fill="#14A894" rx="1.875" ry="1.5" transform="rotate(30 6 16.5)"/><ellipse cx="18" cy="16.5" fill="#14A894" rx="1.875" ry="1.5" transform="rotate(-30 18 16.5)"/><ellipse cx="12" cy="20.25" fill="#14A894" rx="1.125" ry="1.875"/><path fill="#fff" fill-rule="evenodd" d="M15.5 10.5a.75.75 0 0 1 0 1.06l-4 4a.75.75 0 0 1-1.06 0l-2-2A.75.75 0 1 1 9.5 12.5l1.47 1.47 3.47-3.47a.75.75 0 0 1 1.06 0Z" clip-rule="evenodd"/></svg>
